<?xml version="1.0" encoding="utf-8"?>
<!-- Generator: Adobe Illustrator 25.2.3, SVG Export Plug-In . SVG Version: 6.00 Build 0)  -->
<svg version="1.1" id="Layer_1" xmlns="http://www.w3.org/2000/svg" xmlns:xlink="http://www.w3.org/1999/xlink" x="0px" y="0px"
	 viewBox="0 0 518 120" style="enable-background:new 0 0 518 120;" xml:space="preserve">
<style type="text/css">
	.st0{fill:#FA776C;}
	.st1{fill:#624CF5;}
	.st2{fill:none;}
	.st3{font-family:'ErasITC-Bold';}
	.st4{font-size:85.7537px;}
</style>
<path class="st0" d="M0,27.7c0-7.8,8.5-12.6,15.1-8.6l25.1,15.1c6,3.6,9.7,10.1,9.7,17.1v17.4c0,7-3.7,13.5-9.7,17.1l-25.1,15.1
	c-6.7,4-15.1-0.8-15.1-8.6V27.7z"/>
<path class="st1" d="M103.9,0c5.3,0,8,6.4,4.3,10.2L94.9,23.9c-3.8,3.9-9,6.1-14.4,6.1h-25c-3.6,0-7.2-1-10.3-2.9l-26.7-16
	C13.4,8,15.6,0,21.7,0H103.9z"/>
<path class="st1" d="M103.9,120c5.3,0,8-6.4,4.3-10.2L94.9,96.1c-3.8-3.9-9-6.1-14.4-6.1h-25c-3.6,0-7.2,1-10.3,2.9l-26.7,16
	c-5.2,3.1-3,11.1,3.1,11.1H103.9z"/>
<path class="st0" d="M71,45L71,45c8.3,0,15,6.7,15,15l0,0c0,8.3-6.7,15-15,15l0,0c-8.3,0-15-6.7-15-15l0,0C56,51.7,62.7,45,71,45z"
	/>
<path d="M129.3-204.1h32.4v12.1h-32.4L129.3-204.1L129.3-204.1z M130.4-176.5H167v12.5h-52v-67.2h50.8v12.5h-35.3v42.2H130.4z
	 M191.9-164l-21.7-51.6h15.5l18,44.4H196l18.7-44.4h14.4L207.3-164H191.9z M259.5-163.2c-5.9,0-11.1-1.2-15.6-3.5
	c-4.4-2.3-7.8-5.4-10.3-9.4c-2.4-4-3.6-8.6-3.6-13.7c0-5.2,1.2-9.8,3.6-13.7c2.4-4,5.7-7.2,9.9-9.4c4.2-2.3,8.9-3.5,14.1-3.5
	c5.1,0,9.6,1.1,13.6,3.3c4.1,2.1,7.3,5.2,9.7,9.2c2.4,4,3.6,8.7,3.6,14.3c0,0.6,0,1.2-0.1,2c-0.1,0.7-0.1,1.4-0.2,2h-42v-8.7h34.1
	l-5.8,2.6c0-2.7-0.5-5-1.6-7s-2.6-3.5-4.5-4.6c-1.9-1.2-4.2-1.7-6.7-1.7s-4.8,0.6-6.8,1.7c-1.9,1.1-3.4,2.7-4.5,4.7
	s-1.6,4.4-1.6,7.1v2.3c0,2.8,0.6,5.3,1.8,7.5c1.3,2.1,3,3.7,5.3,4.9c2.3,1.1,5,1.6,8.1,1.6c2.8,0,5.2-0.4,7.2-1.2
	c2.1-0.8,4-2.1,5.8-3.7l8,8.6c-2.4,2.7-5.3,4.8-8.9,6.2C268.2-163.9,264.1-163.2,259.5-163.2z M325.8-216.4c4.1,0,7.7,0.8,10.9,2.5
	c3.3,1.6,5.8,4.1,7.7,7.5c1.9,3.3,2.8,7.6,2.8,12.9v29.6h-15v-27.3c0-4.2-0.9-7.2-2.8-9.2c-1.8-2-4.4-3-7.7-3
	c-2.4,0-4.5,0.5-6.4,1.5s-3.3,2.5-4.4,4.5c-1,2-1.5,4.7-1.5,7.9v25.5h-15v-51.6h14.3v14.3l-2.7-4.3c1.9-3.5,4.5-6.1,8-8
	S321.4-216.4,325.8-216.4z M381.9-163.2c-6.1,0-10.8-1.5-14.2-4.6c-3.4-3.1-5.1-7.8-5.1-13.9V-227h15v45.1c0,2.2,0.6,3.9,1.7,5.1
	c1.2,1.2,2.7,1.7,4.7,1.7c2.4,0,4.4-0.6,6-1.9l4,10.6c-1.5,1.1-3.4,1.9-5.6,2.5C386.4-163.5,384.2-163.2,381.9-163.2z M354.6-203
	v-11.5h35.8v11.5H354.6z M402.5-164v-71.2h15v71.2H402.5z M437.9-144.6c-2.7,0-5.3-0.4-8-1.2s-4.8-2-6.4-3.5L429-160
	c1.2,1,2.5,1.8,3.9,2.4c1.5,0.6,3,0.9,4.5,0.9c2.1,0,3.8-0.5,5-1.5c1.3-1,2.4-2.6,3.5-4.9l2.7-6.3l1.2-1.6l18.5-44.5h14.4
	l-23.3,54.8c-1.7,4.2-3.6,7.4-5.8,9.8c-2.1,2.4-4.5,4-7.1,5C443.9-145.1,441-144.6,437.9-144.6z M446.7-162l-23-53.7h15.5l17.9,43.2
	L446.7-162z"/>
<rect x="159" y="-132" class="st2" width="34" height="171"/>
<text transform="matrix(0.8594 0 0 1 109.9104 85.3652)" class="st3 st4">YourEvent</text>
</svg>
